<!--?xml version="1.0" standalone="no"?-->
              <svg id="sw-js-blob-svg" viewBox="0 0 100 100" xmlns="http://www.w3.org/2000/svg" version="1.1">
                    <defs> 
                        <linearGradient id="sw-gradient" x1="0" x2="1" y1="1" y2="0">
                            <stop id="stop1" stop-color="rgba(248, 117, 55, 1)" offset="0%"></stop>
                            <stop id="stop2" stop-color="rgba(251, 168, 31, 1)" offset="100%"></stop>
                        </linearGradient>
                    </defs>
                <path fill="url(#sw-gradient)" d="M23.2,-29.4C28.5,-23.3,30,-14.4,29.9,-6.5C29.9,1.4,28.2,8.4,25.6,16.6C23,24.8,19.4,34.2,12.7,38C5.9,41.8,-4,40.1,-13.5,36.8C-23,33.5,-32.1,28.6,-37.7,20.8C-43.3,13,-45.5,2.3,-42.6,-6.4C-39.8,-15.2,-31.9,-21.9,-24,-27.6C-16.1,-33.2,-8,-37.7,0.5,-38.2C9,-38.8,18,-35.5,23.2,-29.4Z" width="100%" height="100%" transform="translate(50 50)" stroke-width="0" style="transition: all 0.3s ease 0s;"></path>
              </svg>